<svg width="200" height="200" viewBox="1 -34 511.99999 511" xmlns="http://www.w3.org/2000/svg"><path d="m112.8125 172.261719h-23.082031c-45.304688 0-82.03125-36.726563-82.03125-82.03125h136.480469-1.046876c-45.304687 0-82.03125-36.726563-82.03125-82.03125h238.667969" fill="#6dcc98"/><path d="m365.164062 435.316406v-427.117187h-56.429687c-109.078125 0-197.5 88.425781-197.5 197.503906v229.613281" fill="#e04149"/><path d="m326.320312 8.203125c-75.105468 0-135.988281 88.421875-135.988281 197.5v229.613281h-79.097656v-229.613281c0-109.078125 88.429687-197.5 197.507813-197.5zm0 0" fill="#cc2939"/><path d="m504.300781 147.335938v52.722656h-139.136719v-191.859375c38.417969 0 73.203126 15.578125 98.382813 40.75 25.171875 25.183593 40.753906 59.96875 40.753906 98.386719zm0 0" fill="#edd464"/><path d="m365.164062 254.613281h-36.097656c-68.039062 0-123.207031-55.164062-123.207031-123.207031 0-34.023438 13.789063-64.828125 36.089844-87.117188 22.289062-22.300781 53.089843-36.089843 87.117187-36.089843h36.097656" fill="#eaeaea"/><path d="m504.304688 200.058594h-139.140626v-37.847656s139.140626-14.875 139.140626 37.847656zm0 0" fill="#d8951e"/><path d="m251.035156 355.394531v79.921875h-139.804687v-219.71875c29.351562 0 56.601562 9.046875 79.097656 24.507813 7.082031 4.867187 13.707031 10.378906 19.761719 16.4375 25.300781 25.296875 40.945312 60.246093 40.945312 98.851562zm0 0" fill="#6dcc98"/><path d="m190.328125 240.105469v195.210937h-79.097656v-219.71875c29.351562 0 56.601562 9.046875 79.097656 24.507813zm0 0" fill="#57ad7b"/><path d="m468.992188 43.503906c-27.742188-27.730468-64.613282-43.003906-103.824219-43.003906 0 0 0 0-.003907 0h-182.054687c-4.25 0-7.699219 3.449219-7.699219 7.699219 0 4.253906 3.449219 7.703125 7.699219 7.703125h47.660156c-34.34375 14.15625-64.035156 37.367187-86.074219 66.652344-.171874-.007813-.34375-.023438-.515624-.023438h-1.046876c-38.386718 0-70.070312-29.25-73.933593-66.628906h88.242187c4.253906 0 7.699219-3.449219 7.699219-7.703125 0-4.25-3.445313-7.699219-7.699219-7.699219h-96.339844c-4.253906 0-7.699218 3.449219-7.699218 7.699219 0 30.886719 15.6875 58.183593 39.511718 74.332031h-85.214843c-4.25 0-7.699219 3.445312-7.699219 7.699219 0 49.476562 40.253906 89.730469 89.730469 89.730469h15.414062c-1.0625 8.433593-1.613281 17.023437-1.613281 25.742187v229.613281c0 4.253906 3.449219 7.699219 7.703125 7.699219 4.25 0 7.699219-3.445313 7.699219-7.699219v-211.796875c69.273437 4 124.402344 61.621094 124.402344 131.882813v79.914062c0 4.25 3.445312 7.699219 7.699218 7.699219s7.699219-3.449219 7.699219-7.699219v-79.914062c0-78.753906-62.03125-143.285156-139.800781-147.304688v-2.394531c0-85.789063 57.21875-158.453125 135.492187-181.871094-6.34375 4.421875-12.339843 9.429688-17.921875 15.011719-24.726562 24.714844-38.34375 57.585938-38.34375 92.5625 0 72.183594 58.722656 130.90625 130.90625 130.90625h28.398438v48.769531c0 4.25 3.445312 7.699219 7.699218 7.699219 4.253907 0 7.699219-3.449219 7.699219-7.699219v-103.324219h131.4375c4.253907 0 7.699219-3.449218 7.699219-7.699218v-52.722656c0-39.210938-15.273438-76.085938-43.007812-103.832032zm-379.261719 121.054688c-38.386719 0-70.070313-29.246094-73.933594-66.628906h118.390625c-12.496094 20.167968-21.605469 42.640624-26.507812 66.628906zm406.867187-17.222656v23.882812c-15.078125-11.125-41.285156-17.335938-78.03125-18.460938-18.902344-.582031-35.953125.332032-45.703125 1.054688v-137.691406c32.207031 1.847656 62.230469 15.273437 85.238281 38.273437 24.824219 24.835938 38.496094 57.84375 38.496094 92.941407zm-167.53125 99.578124c-63.691406 0-115.503906-51.816406-115.503906-115.507812 0-30.859375 12.015625-59.863281 33.832031-81.671875 21.808594-21.820313 50.8125-33.832031 81.671875-33.832031h28.398438v231.011718zm43.796875-77.6875c30.601563-2.464843 95.183594-3.273437 116.90625 16.253907 2.351563 2.109375 4.074219 4.394531 5.207031 6.875h-122.113281zm0 0"/><path d="m365.164062 329.050781c-4.253906 0-7.699218 3.445313-7.699218 7.699219v98.566406c0 4.25 3.445312 7.699219 7.699218 7.699219 4.253907 0 7.699219-3.449219 7.699219-7.699219v-98.566406c0-4.253906-3.445312-7.699219-7.699219-7.699219zm0 0"/><path d="m324.925781 72.882812c-4.253906 0-7.699219 3.449219-7.699219 7.703126v20.019531c0 4.253906 3.445313 7.699219 7.699219 7.699219 4.253907 0 7.699219-3.445313 7.699219-7.699219v-20.019531c0-4.253907-3.445312-7.703126-7.699219-7.703126zm0 0"/><path d="m196.488281 326.996094c-4.253906 0-7.703125 3.449218-7.703125 7.699218v100.621094c0 4.25 3.449219 7.699219 7.703125 7.699219 4.25 0 7.699219-3.449219 7.699219-7.699219v-100.621094c0-4.25-3.449219-7.699218-7.699219-7.699218zm0 0"/><path d="m154.226562 279.765625c-4.253906 0-7.699218 3.449219-7.699218 7.703125v147.847656c0 4.25 3.445312 7.699219 7.699218 7.699219 4.253907 0 7.699219-3.449219 7.699219-7.699219v-147.847656c0-4.253906-3.445312-7.703125-7.699219-7.703125zm0 0"/></svg>