<svg viewBox="0 -95 512 512" xmlns="http://www.w3.org/2000/svg"><path d="m344.496094 252.679688h79.574218v62.621093h-79.574218" fill="#57ad7b"/><path d="m283.460938 240.140625h84.003906v75.160156h-84.003906zm0 0" fill="#57ad7b"/><path d="m315.984375 271.707031h51.480469v43.59375h-51.480469zm0 0" fill="#6dcc98"/><path d="m123.027344 252.679688h79.578125v62.621093h-79.578125" fill="#57ad7b"/><path d="m61.996094 240.140625h84.003906v75.160156h-84.003906zm0 0" fill="#57ad7b"/><path d="m94.515625 271.707031h51.484375v43.59375h-51.484375zm0 0" fill="#6dcc98"/><path d="m420.664062 207.277344h-390.328124c-6.273438 0-11.945313 2.535156-16.050782 6.652344-4.113281 4.101562-6.648437 9.773437-6.648437 16.046874 0 12.535157 10.164062 22.695313 22.699219 22.695313h381.375" fill="#edd464"/><path d="m88.375 252.671875h-58.039062c-12.535157 0-22.699219-10.160156-22.699219-22.695313 0-6.273437 2.535156-11.945312 6.648437-16.046874 4.105469-4.117188 9.777344-6.652344 16.050782-6.652344h58.039062c-6.269531 0-11.941406 2.535156-16.046875 6.652344-4.113281 4.101562-6.648437 9.773437-6.648437 16.046874 0 12.535157 10.160156 22.695313 22.695312 22.695313zm0 0" fill="#d8951e"/><path d="m420.664062 207.28125c0-110.261719-89.382812-199.644531-199.640624-199.644531-110.257813 0-199.640626 89.382812-199.640626 199.644531zm0 0" fill="#b75129"/><path d="m221.027344 7.636719c-62.984375 0-114.027344 89.382812-114.027344 199.644531h-85.617188c0-110.261719 89.382813-199.644531 199.644532-199.644531zm0 0" fill="#a03e20"/><path d="m444.316406 84.667969c-33.164062 0-60.050781 26.886719-60.050781 60.050781v107.960938h69.980469c27.679687 0 50.117187-22.441407 50.117187-50.117188v-57.84375c0-33.164062-26.886719-60.050781-60.046875-60.050781zm0 0" fill="#6dcc98"/><path d="m103.503906 55.425781c33.890625-26.265625 74.527344-40.152343 117.515625-40.152343 30.859375 0 60.320313 7.097656 87.570313 21.085937 26.003906 13.351563 49.003906 32.832031 66.511718 56.335937 1.5 2.015626 3.800782 3.078126 6.132813 3.078126 1.585937 0 3.1875-.496094 4.554687-1.515626 3.382813-2.519531 4.085938-7.304687 1.5625-10.6875-18.894531-25.363281-43.714843-46.390624-71.785156-60.800781-29.429687-15.109375-61.238281-22.769531-94.546875-22.769531-46.40625 0-90.277343 14.992188-126.875 43.351562-3.332031 2.585938-3.941406 7.382813-1.355469 10.714844 2.585938 3.335938 7.382813 3.945313 10.714844 1.359375zm0 0"/><path d="m444.316406 77.03125c-37.324218 0-67.6875 30.363281-67.6875 67.683594v54.925781h-48.328125c-4.21875 0-7.636719 3.417969-7.636719 7.636719s3.417969 7.636718 7.636719 7.636718h48.328125v30.121094h-346.292968c-8.304688 0-15.0625-6.753906-15.0625-15.058594 0-4.03125 1.566406-7.808593 4.417968-10.65625 2.835938-2.839843 6.613282-4.40625 10.644532-4.40625h272.503906c4.21875 0 7.640625-3.417968 7.640625-7.636718s-3.421875-7.636719-7.640625-7.636719h-272.503906c-.386719 0-.773438.015625-1.15625.027344 1.894531-49.0625 22.0625-94.761719 57.304687-129.375 3.007813-2.957031 3.050781-7.789063.097656-10.800781-2.957031-3.007813-7.792969-3.050782-10.800781-.097657-39.355469 38.65625-61.300781 90.113281-62.003906 145.15625-1.742188 1.140625-3.382813 2.464844-4.886719 3.96875-5.730469 5.722657-8.890625 13.339844-8.890625 21.457031 0 16.726563 13.605469 30.335938 30.335938 30.335938h24.023437v54.988281c0 4.214844 3.417969 7.636719 7.636719 7.636719h84.003906c4.21875 0 7.636719-3.421875 7.636719-7.636719v-54.988281h41.328125v47.347656h-27.582032c-4.21875 0-7.636718 3.421875-7.636718 7.640625 0 4.214844 3.417968 7.636719 7.636718 7.636719h35.222657c4.21875 0 7.636719-3.421875 7.636719-7.636719v-54.988281h65.582031v54.988281c0 4.214844 3.417969 7.636719 7.636719 7.636719h84.003906c4.21875 0 7.636718-3.421875 7.636718-7.636719v-54.988281h9.078126c.027343 0 .058593.003906.085937.003906h32.167969v47.34375h-27.585938c-4.21875 0-7.636718 3.421875-7.636718 7.640625 0 4.214844 3.417968 7.636719 7.636718 7.636719h35.222656c4.21875 0 7.636719-3.421875 7.636719-7.636719v-54.984375h22.539063c31.84375 0 57.753906-25.910156 57.753906-57.753906v-57.84375c0-37.324219-30.363281-67.6875-67.683594-67.6875zm-305.953125 230.628906h-68.730469v-47.347656h68.730469zm221.464844 0h-68.730469v-47.347656h68.730469zm94.417969-62.621094s-30.144532-.003906-30.175782-.003906-32.167968.003906-32.167968.003906v-100.320312c0-28.898438 23.511718-52.410156 52.414062-52.410156 28.898438 0 52.410156 23.511718 52.410156 52.410156v46.035156h-36.148437c-4.21875 0-7.636719 3.417969-7.636719 7.636719 0 4.214844 3.417969 7.636719 7.636719 7.636719h35.996094c-1.773438 21.804687-20.074219 39.011718-42.328125 39.011718zm0 0"/><path d="m471.78125 165.292969c4.21875 0 7.636719-3.417969 7.636719-7.636719v-22.671875c0-4.21875-3.417969-7.636719-7.636719-7.636719s-7.636719 3.417969-7.636719 7.636719v22.671875c0 4.21875 3.417969 7.636719 7.636719 7.636719zm0 0"/><path d="m444.289062 127.347656c-4.21875 0-7.640624 3.417969-7.640624 7.636719v22.671875c0 4.21875 3.421874 7.636719 7.640624 7.636719s7.636719-3.417969 7.636719-7.636719v-22.671875c0-4.21875-3.421875-7.636719-7.636719-7.636719zm0 0"/></svg>